# xmcd
#
# Track frame offsets:
# 150
# 2350
# 19022
# 20787
# 34975
# 35742
# 49405
# 52452
# 63660
# 64930
# 80007
# 81072
# 95265
# 98712
# 112335
# 114210
# 127595
# 128407
# 148735
# 151590
# 167240
# 168417
# 181007
# 181890
# 198867
# 202660
# 218287
# 219212
# 238710
#
# Disc length: 3271 seconds
#
#
# Revision: 2
# Processed by: cddbd v1.5.1PL0 Copyright (c) Steve Scherf et al.
# Submitted via: FreeRIP 2.90 
#
DISCID=810cc51d
DTITLE=Asa Branca - Cowboy Contry Vol. 2
DYEAR=2001
DGENRE=Country
TTITLE0=Asa Branca - Locução
TTITLE1=Bellamy Brothers - Twang Town
TTITLE2=Asa Branca - Locução
TTITLE3=Johnny Danton - She Did To Me
TTITLE4=Asa Branca - Locução
TTITLE5=July Feel - Take Me As I Am
TTITLE6=Asa Branca - Locução
TTITLE7=Mark Cavalla - Little Bitty
TTITLE8=Asa Branca - Locução
TTITLE9=L. K. Ranger - Karma Camaleon
TTITLE10=Asa Branca - Locução
TTITLE11=Mag Line - My Heart Has A History
TTITLE12=Asa Branca - Locução
TTITLE13=Gal Faker - Let's Go To Vegas
TTITLE14=Asa Branca - Locução
TTITLE15=Bob Woodruff - I Cry Behind Whell
TTITLE16=Asa Branca - Locução
TTITLE17=Leddis Woof - Against The Wind
TTITLE18=Asa Branca - Locução
TTITLE19=Evan Floown - She's Take A Shine
TTITLE20=Asa Branca - Locução
TTITLE21=Geisy Must - Blue
TTITLE22=Asa Branca - Locução
TTITLE23=Marty Shewood - My Oh My
TTITLE24=Asa Branca - Locução
TTITLE25=Natie Murk - Someone Else's
TTITLE26=Asa Branca - Locução
TTITLE27=Doug Wayne - Because You Loved Me
TTITLE28=Asa Branca - Oração
EXTD=YEAR: 2001 ID3G: 2
EXTT0=
EXTT1=
EXTT2=
EXTT3=
EXTT4=
EXTT5=
EXTT6=
EXTT7=
EXTT8=
EXTT9=
EXTT10=
EXTT11=
EXTT12=
EXTT13=
EXTT14=
EXTT15=
EXTT16=
EXTT17=
EXTT18=
EXTT19=
EXTT20=
EXTT21=
EXTT22=
EXTT23=
EXTT24=
EXTT25=
EXTT26=
EXTT27=
EXTT28=
PLAYORDER=
